<?xml version="1.0" encoding="utf-8"?>
<!-- Generator: Adobe Illustrator 16.0.0, SVG Export Plug-In . SVG Version: 6.00 Build 0)  -->
<!DOCTYPE svg PUBLIC "-//W3C//DTD SVG 1.1//EN" "http://www.w3.org/Graphics/SVG/1.1/DTD/svg11.dtd">
<svg version="1.1" id="Layer_1" xmlns="http://www.w3.org/2000/svg" xmlns:xlink="http://www.w3.org/1999/xlink" x="0px" y="0px"
	 width="180px" height="170px" viewBox="0 0 180 170" enable-background="new 0 0 180 170" xml:space="preserve">
<path fill="#DF6126" d="M90,27.97c-31.95,0-57.944,25.666-57.944,57.215c0,31.545,25.994,57.21,57.944,57.21
	c31.951,0,57.945-25.665,57.945-57.21C147.946,53.636,121.952,27.97,90,27.97"/>
<path fill="#DF6126" d="M114.706,0C107.053,0,97.987,7.267,90,7.267C82.013,7.267,72.945,0,65.294,0
	c-1.068,0-2.107,0.14-3.113,0.463C53.67,3.193,50.812,17.015,43.728,22.106c-7.155,5.141-21.336,3.592-26.543,10.655
	c-5.154,6.996,0.686,19.809-2.079,28.211C12.439,69.08,0,76.014,0,85c0,8.984,12.438,15.921,15.105,24.029
	c2.765,8.403-3.075,21.216,2.079,28.211c5.207,7.064,19.388,5.512,26.543,10.653c7.084,5.094,9.942,18.914,18.453,21.644
	c1.006,0.323,2.045,0.463,3.113,0.463c7.65,0,16.719-7.268,24.706-7.268c7.986,0,17.054,7.268,24.705,7.268
	c1.066,0,2.106-0.142,3.111-0.465c8.513-2.728,11.372-16.55,18.456-21.642c7.155-5.142,21.335-3.591,26.543-10.656
	c5.155-6.995-0.685-19.805,2.077-28.21C167.562,100.921,180,93.986,180,85c0-8.986-12.441-15.921-15.107-24.029
	c-2.762-8.403,3.078-21.214-2.077-28.21c-5.208-7.063-19.388-5.515-26.543-10.655c-7.084-5.093-9.943-18.913-18.456-21.643
	C116.812,0.142,115.772,0,114.706,0 M90,150.789c-36.74,0-66.628-29.512-66.628-65.788S53.26,19.211,90,19.211
	c36.739,0,66.631,29.513,66.631,65.789S126.74,150.789,90,150.789"/>
<path fill="#FFFFFF" d="M66.239,73.139V53.395h4.87l3.881,12.181c-0.155-2.051-0.271-3.82-0.343-5.31
	c-0.074-1.485-0.111-2.742-0.111-3.769v-3.103h4.168v19.744h-4.882l-3.908-12.552c0.173,1.632,0.306,3.217,0.395,4.751
	c0.092,1.534,0.138,3.023,0.138,4.468v3.333H66.239z"/>
<polygon fill="#FFFFFF" points="81.975,73.139 81.975,53.395 92.856,53.395 92.856,57.229 86.625,57.229 86.625,60.857 
	92.378,60.857 92.378,64.819 86.625,64.819 86.625,69.126 92.856,69.126 92.856,73.139 "/>
<path fill="#FFFFFF" d="M98.546,73.139l-3.987-19.744h4.7l1.063,9.604c0.12,1.052,0.217,1.932,0.288,2.641
	c0.067,0.709,0.123,1.342,0.168,1.897c0.06-0.819,0.133-1.612,0.214-2.372c0.081-0.761,0.18-1.491,0.291-2.192l1.494-9.577h4.7
	l1.441,9.565c0.061,0.384,0.169,1.272,0.325,2.667c0.094,0.812,0.173,1.452,0.234,1.923c0.094-1.188,0.173-2.12,0.239-2.795
	c0.063-0.677,0.123-1.24,0.175-1.693l1.064-9.667h4.714l-3.96,19.744h-5.05l-1.092-8.166c-0.097-0.719-0.179-1.473-0.253-2.264
	c-0.073-0.79-0.141-1.607-0.202-2.455c-0.068,0.974-0.14,1.843-0.214,2.602c-0.073,0.762-0.153,1.476-0.239,2.142l-1.04,8.142
	H98.546z"/>
<path fill="#FFFFFF" d="M48.656,97.303h2.689l-1.336-8.615L48.656,97.303z M42.879,104.648l4.362-19.744h5.557l4.312,19.744h-4.674
	l-0.584-3.784h-3.677l-0.584,3.784H42.879z"/>
<path fill="#FFFFFF" d="M63.564,93.124c0.076,0,0.18,0.003,0.306,0.012c0.125,0.007,0.218,0.012,0.278,0.012
	c0.97,0,1.655-0.191,2.058-0.577c0.402-0.384,0.604-1.033,0.604-1.948c0-0.846-0.202-1.447-0.604-1.803
	c-0.402-0.354-1.088-0.53-2.058-0.53c-0.061,0-0.153,0.005-0.278,0.013c-0.126,0.007-0.229,0.012-0.306,0.012V93.124z
	 M58.941,104.648V84.904H64.2c1.722,0,2.974,0.079,3.753,0.236c0.778,0.159,1.411,0.432,1.896,0.815
	c0.57,0.46,0.998,1.029,1.279,1.705c0.282,0.674,0.421,1.479,0.421,2.409c0,1.138-0.2,2.09-0.603,2.859
	c-0.402,0.769-1.028,1.401-1.876,1.898c1.445,0.633,2.206,2.133,2.285,4.5v0.063c0.008,0.248,0.016,0.608,0.024,1.078
	c0.035,2.222,0.407,3.615,1.118,4.18h-5.467c-0.122-0.411-0.211-0.839-0.267-1.288c-0.057-0.449-0.083-0.93-0.083-1.443
	c0-0.315,0.007-0.699,0.024-1.146c0.017-0.447,0.027-0.741,0.027-0.879c0-1.205-0.16-2.029-0.48-2.474
	c-0.32-0.446-0.897-0.667-1.728-0.667h-0.961v7.897H58.941z"/>
<path fill="#FFFFFF" d="M79.144,93.124c0.079,0,0.181,0.003,0.308,0.012c0.123,0.007,0.217,0.012,0.278,0.012
	c0.97,0,1.655-0.191,2.058-0.577c0.402-0.384,0.604-1.033,0.604-1.948c0-0.846-0.201-1.447-0.604-1.803
	c-0.402-0.354-1.088-0.53-2.058-0.53c-0.062,0-0.155,0.005-0.278,0.013c-0.127,0.007-0.229,0.012-0.308,0.012V93.124z
	 M74.521,104.648V84.904h5.261c1.723,0,2.972,0.079,3.752,0.236c0.78,0.159,1.41,0.432,1.896,0.815
	c0.571,0.46,0.997,1.029,1.278,1.705c0.282,0.674,0.422,1.479,0.422,2.409c0,1.138-0.2,2.09-0.603,2.859
	c-0.403,0.769-1.029,1.401-1.877,1.898c1.446,0.633,2.208,2.133,2.285,4.5v0.063c0.009,0.248,0.018,0.608,0.026,1.078
	c0.034,2.222,0.406,3.615,1.116,4.18h-5.465c-0.121-0.411-0.212-0.839-0.27-1.288c-0.054-0.449-0.082-0.93-0.082-1.443
	c0-0.315,0.008-0.699,0.025-1.146s0.026-0.741,0.026-0.879c0-1.205-0.16-2.029-0.481-2.474c-0.32-0.446-0.895-0.667-1.727-0.667
	h-0.962v7.897H74.521z"/>
<rect x="90.104" y="84.904" fill="#FFFFFF" width="4.675" height="19.744"/>
<path fill="#FFFFFF" d="M101.077,104.648l-4.468-19.744h4.948l1.728,10.373c0.077,0.461,0.165,1.069,0.266,1.827
	c0.102,0.755,0.197,1.573,0.292,2.455l0.039-0.245c0.233-2.06,0.398-3.398,0.494-4.014l1.765-10.396h4.936l-4.544,19.744H101.077z"
	/>
<path fill="#FFFFFF" d="M116.541,97.303h2.688l-1.335-8.615L116.541,97.303z M110.764,104.648l4.362-19.744h5.559l4.31,19.744
	h-4.674l-0.584-3.784h-3.674l-0.587,3.784H110.764z"/>
<polygon fill="#FFFFFF" points="137.122,104.648 126.826,104.648 126.826,84.904 131.499,84.904 131.499,100.661 137.122,100.661 
	"/>
</svg>
