<?xml version="1.0" encoding="utf-8"?>
<!-- Generator: Adobe Illustrator 16.0.0, SVG Export Plug-In . SVG Version: 6.00 Build 0)  -->
<!DOCTYPE svg PUBLIC "-//W3C//DTD SVG 1.1//EN" "http://www.w3.org/Graphics/SVG/1.1/DTD/svg11.dtd">
<svg version="1.1" id="Layer_1" xmlns="http://www.w3.org/2000/svg" xmlns:xlink="http://www.w3.org/1999/xlink" x="0px" y="0px"
	 width="180px" height="170px" viewBox="0 0 180 170" enable-background="new 0 0 180 170" xml:space="preserve">
<g opacity="0.85">
	<path fill="#BF0029" d="M89.799,31.628c-29.744,0-53.94,23.944-53.94,53.371c0,29.431,24.196,53.373,53.94,53.373
		c29.743,0,53.94-23.942,53.94-53.373C143.74,55.571,119.542,31.628,89.799,31.628z"/>
	<path fill="#BF0029" d="M177.669,80.372l-22.034-16.476l8.041-26.151c0.536-1.741,0.214-3.63-0.867-5.1
		c-1.08-1.471-2.797-2.355-4.634-2.389l-27.622-0.5l-9.005-25.846c-0.601-1.723-1.982-3.064-3.732-3.626
		c-1.748-0.563-3.664-0.28-5.173,0.763L90,16.723L67.357,1.048c-1.508-1.044-3.423-1.326-5.173-0.765
		c-1.751,0.563-3.132,1.905-3.732,3.627l-9.005,25.846l-27.622,0.5c-1.838,0.033-3.553,0.918-4.635,2.389
		c-1.081,1.472-1.402,3.36-0.867,5.1l8.042,26.151L2.331,80.372C0.863,81.468,0,83.182,0,85c0,1.817,0.862,3.532,2.33,4.63
		l22.034,16.475l-8.041,26.15c-0.534,1.74-0.214,3.628,0.867,5.1c1.082,1.472,2.799,2.354,4.635,2.39l27.622,0.499l9.005,25.846
		c0.6,1.723,1.981,3.064,3.731,3.627s3.665,0.278,5.173-0.764L90,153.276l22.645,15.677c0.997,0.688,2.173,1.047,3.361,1.047
		c0.607,0,1.22-0.092,1.812-0.283c1.749-0.563,3.132-1.904,3.732-3.627l9.004-25.846l27.624-0.5
		c1.836-0.033,3.553-0.917,4.633-2.389c1.081-1.473,1.403-3.36,0.867-5.101l-8.041-26.149l22.034-16.476
		c1.468-1.097,2.33-2.811,2.33-4.63C180,83.181,179.136,81.467,177.669,80.372z M89.799,145.462
		c-33.695,0-61.106-27.123-61.106-60.464c0-33.34,27.411-60.463,61.106-60.463s61.108,27.123,61.108,60.463
		S123.494,145.462,89.799,145.462z"/>
</g>
<g>
	<path fill="#FFFFFF" d="M63.313,68.445c0-4.42,0.16-7.647,0.481-9.681c0.322-2.035,0.852-3.625,1.591-4.77
		c1.061-1.622,2.45-2.826,4.17-3.614c1.72-0.786,3.783-1.18,6.193-1.18c2.427,0,4.486,0.394,6.184,1.18
		c1.693,0.788,3.072,1.993,4.133,3.614c0.771,1.161,1.316,2.76,1.639,4.794c0.32,2.035,0.482,5.253,0.482,9.657
		c0,4.388-0.161,7.603-0.482,9.646c-0.321,2.044-0.868,3.645-1.639,4.807c-1.045,1.604-2.424,2.807-4.133,3.599
		c-1.713,0.795-3.773,1.195-6.184,1.195s-4.474-0.4-6.193-1.195c-1.72-0.793-3.109-1.995-4.17-3.599
		c-0.739-1.145-1.27-2.735-1.591-4.77C63.474,76.093,63.313,72.864,63.313,68.445z M79.315,71.76v-6.631
		c0-4.069-0.261-6.585-0.782-7.548c-0.523-0.96-1.466-1.441-2.832-1.441c-1.332,0-2.257,0.493-2.771,1.477
		c-0.515,0.986-0.771,3.491-0.771,7.511v6.631c0,3.975,0.256,6.467,0.771,7.475c0.515,1.011,1.454,1.515,2.819,1.515
		c1.35,0,2.282-0.493,2.796-1.478C79.059,78.286,79.315,75.784,79.315,71.76z"/>
	<path fill="#FFFFFF" d="M93.487,86.807V50.083h9.037l7.207,22.654c-0.289-3.816-0.502-7.106-0.641-9.874
		c-0.136-2.766-0.202-5.103-0.202-7.011v-5.77h7.734v36.723h-9.062l-7.255-23.345c0.321,3.037,0.567,5.979,0.735,8.835
		c0.169,2.853,0.253,5.624,0.253,8.31v6.2L93.487,86.807L93.487,86.807z"/>
	<path fill="#FFFFFF" d="M62.122,113.184h4.545v0.612c0,1.154,0.138,1.968,0.412,2.439c0.276,0.473,0.739,0.708,1.391,0.708
		c0.523,0,0.938-0.179,1.24-0.538c0.303-0.358,0.454-0.848,0.454-1.465c0-1.018-0.739-1.994-2.218-2.93
		c-0.239-0.163-0.421-0.286-0.551-0.368l-0.234-0.149c-1.992-1.326-3.231-2.325-3.718-2.998c-0.349-0.509-0.616-1.081-0.799-1.717
		c-0.185-0.637-0.276-1.331-0.276-2.085c0-1.835,0.537-3.275,1.611-4.319c1.073-1.045,2.552-1.567,4.435-1.567
		c2.047,0,3.61,0.515,4.689,1.54c1.078,1.027,1.618,2.514,1.618,4.455c0,0.082-0.005,0.195-0.014,0.341
		c-0.01,0.146-0.015,0.261-0.015,0.343h-4.448v-0.261c0-0.917-0.145-1.611-0.435-2.086c-0.29-0.471-0.71-0.707-1.261-0.707
		c-0.468,0-0.845,0.165-1.129,0.497c-0.284,0.331-0.427,0.771-0.427,1.314c0,0.891,0.809,1.835,2.424,2.836
		c0.294,0.189,0.519,0.335,0.675,0.436c0.128,0.072,0.308,0.188,0.537,0.341c1.734,1.09,2.845,2.008,3.332,2.753
		c0.303,0.48,0.535,1.027,0.696,1.642c0.159,0.615,0.24,1.278,0.24,1.996c0,2.101-0.551,3.716-1.653,4.852
		c-1.101,1.136-2.676,1.703-4.723,1.703c-2.147,0-3.762-0.543-4.841-1.629s-1.619-2.7-1.619-4.844c0-0.138,0.002-0.279,0.007-0.43
		C62.074,113.748,62.094,113.511,62.122,113.184z"/>
	<path fill="#FFFFFF" d="M76.045,120.297l4.627-20.986h5.894l4.572,20.986h-4.957l-0.62-4.021h-3.898l-0.619,4.021H76.045z
		 M82.172,112.49h2.852l-1.419-9.158L82.172,112.49z"/>
	<path fill="#FFFFFF" d="M104,120.297h-10.92V99.311h4.958v16.749H104V120.297z"/>
	<path fill="#FFFFFF" d="M106.19,120.297V99.311h11.542v4.075h-6.61v3.855h6.101v4.211h-6.101v4.579h6.61v4.266H106.19
		L106.19,120.297z"/>
</g>
</svg>
