<?xml version="1.0" encoding="utf-8"?>
<!-- Generator: Adobe Illustrator 16.0.0, SVG Export Plug-In . SVG Version: 6.00 Build 0)  -->
<!DOCTYPE svg PUBLIC "-//W3C//DTD SVG 1.1//EN" "http://www.w3.org/Graphics/SVG/1.1/DTD/svg11.dtd">
<svg version="1.1" id="Layer_1" xmlns="http://www.w3.org/2000/svg" xmlns:xlink="http://www.w3.org/1999/xlink" x="0px" y="0px"
	 width="180px" height="170px" viewBox="0 0 180 170" enable-background="new 0 0 180 170" xml:space="preserve">
<path fill="#DF6126" d="M90,27.97c-31.95,0-57.944,25.666-57.944,57.215c0,31.545,25.994,57.21,57.944,57.21
	c31.951,0,57.945-25.665,57.945-57.21C147.946,53.636,121.952,27.97,90,27.97"/>
<path fill="#FFFFFF" d="M66.239,73.139V53.395h4.87l3.881,12.181c-0.155-2.051-0.271-3.82-0.343-5.31
	c-0.074-1.485-0.111-2.742-0.111-3.769v-3.103h4.168v19.744h-4.882l-3.908-12.552c0.173,1.632,0.306,3.217,0.395,4.751
	c0.092,1.534,0.138,3.023,0.138,4.468v3.333H66.239z"/>
<polygon fill="#FFFFFF" points="81.975,73.139 81.975,53.395 92.856,53.395 92.856,57.229 86.625,57.229 86.625,60.857 
	92.378,60.857 92.378,64.819 86.625,64.819 86.625,69.126 92.856,69.126 92.856,73.139 "/>
<path fill="#FFFFFF" d="M98.546,73.139l-3.987-19.744h4.7l1.063,9.604c0.12,1.052,0.217,1.932,0.288,2.641
	c0.067,0.709,0.123,1.342,0.168,1.897c0.06-0.819,0.133-1.612,0.214-2.372c0.081-0.761,0.18-1.491,0.291-2.192l1.494-9.577h4.7
	l1.441,9.565c0.061,0.384,0.169,1.272,0.325,2.667c0.094,0.812,0.173,1.452,0.234,1.923c0.094-1.188,0.173-2.12,0.239-2.795
	c0.063-0.677,0.123-1.24,0.175-1.693l1.064-9.667h4.714l-3.96,19.744h-5.05l-1.092-8.166c-0.097-0.719-0.179-1.473-0.253-2.264
	c-0.073-0.79-0.141-1.607-0.202-2.455c-0.068,0.974-0.14,1.843-0.214,2.602c-0.073,0.762-0.153,1.476-0.239,2.142l-1.04,8.142
	H98.546z"/>
<path fill="#FFFFFF" d="M48.656,97.303h2.689l-1.336-8.615L48.656,97.303z M42.879,104.648l4.362-19.744h5.557l4.312,19.744h-4.674
	l-0.584-3.784h-3.677l-0.584,3.784H42.879z"/>
<path fill="#FFFFFF" d="M63.564,93.124c0.076,0,0.18,0.003,0.306,0.012c0.125,0.007,0.218,0.012,0.278,0.012
	c0.97,0,1.655-0.191,2.058-0.577c0.402-0.384,0.604-1.033,0.604-1.948c0-0.846-0.202-1.447-0.604-1.803
	c-0.402-0.354-1.088-0.53-2.058-0.53c-0.061,0-0.153,0.005-0.278,0.013c-0.126,0.007-0.229,0.012-0.306,0.012V93.124z
	 M58.941,104.648V84.904H64.2c1.722,0,2.974,0.079,3.753,0.236c0.778,0.159,1.411,0.432,1.896,0.815
	c0.57,0.46,0.998,1.029,1.279,1.705c0.282,0.674,0.421,1.479,0.421,2.409c0,1.138-0.2,2.09-0.603,2.859
	c-0.402,0.769-1.028,1.401-1.876,1.898c1.445,0.633,2.206,2.133,2.285,4.5v0.063c0.008,0.248,0.016,0.608,0.024,1.078
	c0.035,2.222,0.407,3.615,1.118,4.18h-5.467c-0.122-0.411-0.211-0.839-0.267-1.288c-0.057-0.449-0.083-0.93-0.083-1.443
	c0-0.315,0.007-0.699,0.024-1.146c0.017-0.447,0.027-0.741,0.027-0.879c0-1.205-0.16-2.029-0.48-2.474
	c-0.32-0.446-0.897-0.667-1.728-0.667h-0.961v7.897H58.941z"/>
<path fill="#FFFFFF" d="M79.144,93.124c0.079,0,0.181,0.003,0.308,0.012c0.123,0.007,0.217,0.012,0.278,0.012
	c0.97,0,1.655-0.191,2.058-0.577c0.402-0.384,0.604-1.033,0.604-1.948c0-0.846-0.201-1.447-0.604-1.803
	c-0.402-0.354-1.088-0.53-2.058-0.53c-0.062,0-0.155,0.005-0.278,0.013c-0.127,0.007-0.229,0.012-0.308,0.012V93.124z
	 M74.521,104.648V84.904h5.261c1.723,0,2.972,0.079,3.752,0.236c0.78,0.159,1.41,0.432,1.896,0.815
	c0.571,0.46,0.997,1.029,1.278,1.705c0.282,0.674,0.422,1.479,0.422,2.409c0,1.138-0.2,2.09-0.603,2.859
	c-0.403,0.769-1.029,1.401-1.877,1.898c1.446,0.633,2.208,2.133,2.285,4.5v0.063c0.009,0.248,0.018,0.608,0.026,1.078
	c0.034,2.222,0.406,3.615,1.116,4.18h-5.465c-0.121-0.411-0.212-0.839-0.27-1.288c-0.054-0.449-0.082-0.93-0.082-1.443
	c0-0.315,0.008-0.699,0.025-1.146s0.026-0.741,0.026-0.879c0-1.205-0.16-2.029-0.481-2.474c-0.32-0.446-0.895-0.667-1.727-0.667
	h-0.962v7.897H74.521z"/>
<rect x="90.104" y="84.904" fill="#FFFFFF" width="4.675" height="19.744"/>
<path fill="#FFFFFF" d="M101.077,104.648l-4.468-19.744h4.948l1.728,10.373c0.077,0.461,0.165,1.069,0.266,1.827
	c0.102,0.755,0.197,1.573,0.292,2.455l0.039-0.245c0.233-2.06,0.398-3.398,0.494-4.014l1.765-10.396h4.936l-4.544,19.744H101.077z"
	/>
<path fill="#FFFFFF" d="M116.541,97.303h2.688l-1.335-8.615L116.541,97.303z M110.764,104.648l4.362-19.744h5.559l4.31,19.744
	h-4.674l-0.584-3.784h-3.674l-0.587,3.784H110.764z"/>
<polygon fill="#FFFFFF" points="137.122,104.648 126.826,104.648 126.826,84.904 131.499,84.904 131.499,100.661 137.122,100.661 
	"/>
<path fill="#29265C" d="M79.162,0L60.55,17.442H34.231c0,0-0.596,15.083-15.686,15.083v24.849L0.065,74.946
	c0,0,10.842,10.297-0.064,20.596l18.545,17.572v24.849c0,0,0.15-0.007,0.426-0.007c2.511,0,15.26,0.675,15.26,14.376h26.321
	L79.162,170c0,0,4.863-4.613,11.342-4.613c3.223,0,6.848,1.143,10.472,4.564l18.611-17.62h26.319c0,0-0.595-14.369,15.506-14.369
	v-24.852L180,95.542c0,0-10.928-10.299-0.022-20.596l-18.566-17.571v-24.85c0,0-15.506-0.834-15.506-15.083h-26.319L100.975,0.128
	c0,0-4.805,4.482-11.229,4.482C86.495,4.611,82.828,3.461,79.162,0 M90.57,150.119c-37.841,0-68.627-29.067-68.627-64.797
	c0-35.73,30.786-64.798,68.627-64.798c37.843,0,68.632,29.067,68.632,64.798C159.202,121.051,128.413,150.119,90.57,150.119"/>
<path fill="#29265C" d="M90.57,28.123c-33.403,0-60.579,25.659-60.579,57.196c0,31.54,27.176,57.201,60.579,57.201
	c33.405,0,60.581-25.661,60.581-57.201C151.151,53.782,123.975,28.123,90.57,28.123"/>
<path fill="#FFFFFF" d="M76.286,53.386V49.79c0-2.21-0.147-3.574-0.446-4.099c-0.298-0.521-0.835-0.781-1.611-0.781
	c-0.757,0-1.283,0.268-1.574,0.802c-0.293,0.536-0.438,1.895-0.438,4.078v3.597c0,2.158,0.146,3.51,0.438,4.058
	c0.291,0.548,0.825,0.822,1.604,0.822c0.767,0,1.297-0.267,1.59-0.803C76.14,56.928,76.286,55.57,76.286,53.386 M67.183,51.587
	c0-2.398,0.092-4.148,0.276-5.255c0.183-1.104,0.482-1.966,0.904-2.588c0.602-0.88,1.393-1.533,2.37-1.961
	c0.979-0.427,2.151-0.64,3.523-0.64c1.378,0,2.551,0.213,3.517,0.64c0.961,0.428,1.747,1.081,2.351,1.961
	c0.438,0.63,0.749,1.498,0.932,2.602c0.185,1.105,0.273,2.852,0.273,5.241c0,2.381-0.089,4.127-0.273,5.236
	c-0.183,1.108-0.493,1.978-0.932,2.606c-0.596,0.872-1.38,1.523-2.351,1.954c-0.974,0.433-2.146,0.648-3.517,0.648
	c-1.372,0-2.545-0.216-3.523-0.648c-0.978-0.431-1.769-1.082-2.37-1.954c-0.422-0.62-0.722-1.484-0.904-2.588
	C67.275,55.739,67.183,53.985,67.183,51.587"/>
<path fill="#FFFFFF" d="M84.345,41.623h4.99v12.488c0,1.892,0.126,3.06,0.374,3.507c0.254,0.449,0.7,0.674,1.338,0.674
	c0.651,0,1.097-0.232,1.346-0.699c0.246-0.465,0.367-1.626,0.367-3.481V41.623h4.894v12.723c0,1.439-0.063,2.516-0.197,3.228
	c-0.133,0.713-0.35,1.332-0.65,1.858c-0.503,0.896-1.229,1.555-2.181,1.974c-0.948,0.417-2.188,0.628-3.713,0.628
	c-1.41,0-2.556-0.197-3.44-0.591c-0.887-0.393-1.592-1.019-2.111-1.883c-0.377-0.612-0.639-1.396-0.791-2.354
	c-0.15-0.959-0.225-2.577-0.225-4.854V41.623z"/>
<polygon fill="#FFFFFF" points="103.659,61.551 103.659,45.493 99.711,45.493 99.711,41.623 112.761,41.623 112.761,45.493 
	108.607,45.493 108.607,61.551 "/>
<path fill="#FFFFFF" d="M83.461,85.877c0,2.107,0.098,3.425,0.295,3.955c0.195,0.53,0.564,0.796,1.104,0.796
	c0.537,0,0.906-0.254,1.102-0.764c0.199-0.509,0.295-1.838,0.295-3.987c0-2.147-0.096-3.478-0.295-3.992
	c-0.195-0.512-0.564-0.771-1.102-0.771c-0.54,0-0.909,0.268-1.104,0.803C83.559,82.453,83.461,83.772,83.461,85.877 M78.966,85.877
	c0-2.915,0.441-4.96,1.328-6.133c0.888-1.175,2.407-1.761,4.566-1.761c2.153,0,3.676,0.584,4.565,1.747
	c0.885,1.168,1.328,3.213,1.328,6.146c0,2.918-0.443,4.96-1.328,6.128c-0.89,1.173-2.412,1.757-4.565,1.757
	c-2.166,0-3.688-0.582-4.573-1.743C79.405,90.861,78.966,88.814,78.966,85.877"/>
<path fill="#FFFFFF" d="M94.098,93.36V81.569h-1.796v-3.183h1.796c0-0.096-0.005-0.226-0.012-0.391
	c-0.013-0.163-0.016-0.279-0.016-0.35c0-1.57,0.355-2.678,1.063-3.326c0.71-0.645,1.917-0.971,3.627-0.971
	c0.254,0,0.522,0.007,0.801,0.019c0.278,0.015,0.569,0.035,0.87,0.061v3.016l-0.205-0.019c-0.073-0.005-0.177-0.007-0.317-0.007
	c-0.51,0-0.872,0.111-1.087,0.335c-0.214,0.226-0.322,0.603-0.322,1.128c0,0.128,0.002,0.229,0.007,0.298l0.032,0.207h1.907v3.183
	h-1.907V93.36H94.098z"/>
<path fill="#FFFFFF" d="M52.017,118.411h4.524v0.582c0,1.096,0.138,1.87,0.411,2.317c0.271,0.449,0.734,0.675,1.382,0.675
	c0.521,0,0.932-0.17,1.235-0.512c0.3-0.343,0.453-0.806,0.453-1.392c0-0.968-0.737-1.894-2.208-2.785
	c-0.236-0.153-0.421-0.27-0.547-0.349l-0.234-0.142c-1.983-1.259-3.218-2.208-3.701-2.846c-0.35-0.483-0.613-1.028-0.796-1.633
	c-0.182-0.603-0.273-1.264-0.273-1.98c0-1.742,0.535-3.11,1.602-4.104c1.072-0.991,2.541-1.486,4.416-1.486
	c2.038,0,3.595,0.488,4.669,1.463c1.072,0.975,1.609,2.385,1.609,4.229c0,0.079-0.005,0.188-0.015,0.326
	c-0.01,0.137-0.013,0.246-0.013,0.323h-4.428v-0.247c0-0.87-0.143-1.53-0.431-1.979c-0.289-0.449-0.708-0.673-1.255-0.673
	c-0.466,0-0.84,0.156-1.126,0.473c-0.28,0.314-0.424,0.73-0.424,1.249c0,0.845,0.806,1.743,2.412,2.692
	c0.294,0.181,0.516,0.318,0.673,0.411c0.126,0.07,0.306,0.18,0.532,0.323c1.728,1.038,2.834,1.91,3.319,2.618
	c0.301,0.456,0.532,0.977,0.692,1.559c0.157,0.581,0.239,1.214,0.239,1.896c0,1.992-0.55,3.529-1.644,4.609
	c-1.097,1.074-2.666,1.616-4.704,1.616c-2.137,0-3.743-0.514-4.814-1.547c-1.077-1.03-1.614-2.566-1.614-4.6
	c0-0.13,0.002-0.268,0.007-0.409C51.973,118.949,51.99,118.723,52.017,118.411"/>
<polygon fill="#FFFFFF" points="69.973,125.167 69.973,109.108 66.025,109.108 66.025,105.236 79.075,105.236 79.075,109.108 
	74.92,109.108 74.92,125.167 "/>
<path fill="#FFFFFF" d="M89.766,116.999v-3.597c0-2.208-0.149-3.573-0.445-4.095c-0.299-0.523-0.833-0.783-1.609-0.783
	c-0.762,0-1.283,0.268-1.577,0.802c-0.293,0.535-0.438,1.895-0.438,4.076v3.597c0,2.159,0.146,3.511,0.438,4.06
	c0.294,0.55,0.828,0.821,1.604,0.821c0.767,0,1.296-0.268,1.589-0.802C89.622,120.544,89.766,119.183,89.766,116.999
	 M80.665,115.203c0-2.4,0.091-4.152,0.275-5.255c0.183-1.105,0.48-1.969,0.904-2.59c0.604-0.879,1.395-1.533,2.371-1.961
	c0.978-0.426,2.15-0.64,3.523-0.64c1.38,0,2.55,0.214,3.516,0.64c0.964,0.428,1.747,1.082,2.352,1.961
	c0.438,0.631,0.749,1.498,0.931,2.601c0.183,1.105,0.273,2.853,0.273,5.244c0,2.38-0.091,4.125-0.273,5.232
	c-0.182,1.109-0.492,1.979-0.931,2.608c-0.594,0.872-1.378,1.525-2.352,1.954c-0.973,0.433-2.146,0.648-3.516,0.648
	c-1.373,0-2.546-0.216-3.523-0.648c-0.977-0.429-1.767-1.082-2.371-1.954c-0.424-0.621-0.722-1.484-0.904-2.585
	C80.755,119.353,80.665,117.599,80.665,115.203"/>
<path fill="#FFFFFF" d="M106.478,117.453h4.852c0.01,0.121,0.018,0.251,0.02,0.389c0.005,0.137,0.008,0.344,0.008,0.621
	c0,2.434-0.564,4.238-1.695,5.418c-1.129,1.178-2.856,1.766-5.188,1.766c-1.369,0-2.542-0.216-3.521-0.646
	c-0.979-0.433-1.77-1.084-2.373-1.956c-0.419-0.619-0.722-1.484-0.904-2.585c-0.183-1.107-0.273-2.857-0.273-5.256
	c0-2.4,0.091-4.15,0.273-5.255c0.183-1.105,0.485-1.969,0.904-2.59c0.594-0.86,1.375-1.51,2.344-1.947
	c0.971-0.435,2.126-0.653,3.469-0.653c2.313,0,4.046,0.606,5.202,1.816c1.158,1.215,1.734,3.027,1.734,5.444v0.193l-4.798-0.012
	c-0.02-1.354-0.182-2.306-0.492-2.854c-0.311-0.55-0.833-0.821-1.565-0.821c-0.793,0-1.338,0.332-1.631,1.002
	c-0.291,0.668-0.437,2.437-0.437,5.3v0.377c0,3.08,0.146,4.967,0.437,5.66c0.293,0.696,0.838,1.043,1.631,1.043
	c0.739,0,1.26-0.254,1.558-0.757c0.298-0.505,0.446-1.444,0.446-2.814V117.453z"/>
<polygon fill="#FFFFFF" points="114.565,125.167 114.565,105.236 119.498,105.236 119.498,113.506 123.184,105.236 128.228,105.236 
	123.65,113.96 128.339,125.167 123.157,125.167 120.567,117.958 119.498,119.861 119.498,125.167 "/>
</svg>
