<?xml version="1.0" encoding="utf-8"?>
<!-- Generator: Adobe Illustrator 16.0.0, SVG Export Plug-In . SVG Version: 6.00 Build 0)  -->
<!DOCTYPE svg PUBLIC "-//W3C//DTD SVG 1.1//EN" "http://www.w3.org/Graphics/SVG/1.1/DTD/svg11.dtd">
<svg version="1.1" id="Layer_1" xmlns="http://www.w3.org/2000/svg" xmlns:xlink="http://www.w3.org/1999/xlink" x="0px" y="0px"
	 width="24px" height="24px" viewBox="0 0 24 24" enable-background="new 0 0 24 24" xml:space="preserve">
<path fill="#241F21" d="M24,11.999C24,5.383,18.616,0,11.999,0C5.382,0,0,5.383,0,11.999c0,3.494,1.502,6.645,3.895,8.839
	L3.882,20.85l0.388,0.328c0.026,0.021,0.055,0.037,0.079,0.06c0.208,0.172,0.423,0.334,0.64,0.491
	c0.071,0.051,0.141,0.103,0.214,0.152c0.233,0.161,0.47,0.313,0.716,0.457c0.054,0.031,0.106,0.062,0.161,0.093
	c0.267,0.151,0.54,0.297,0.818,0.428c0.021,0.009,0.043,0.019,0.063,0.026c0.911,0.425,1.884,0.735,2.901,0.919
	c0.028,0.006,0.053,0.009,0.08,0.016c0.316,0.056,0.636,0.1,0.958,0.126c0.04,0.005,0.081,0.007,0.12,0.011
	C11.343,23.981,11.669,24,11.998,24c0.328,0,0.649-0.019,0.969-0.042c0.041-0.004,0.082-0.007,0.122-0.01
	c0.321-0.029,0.638-0.071,0.95-0.126c0.028-0.006,0.057-0.01,0.082-0.015c1.003-0.181,1.963-0.484,2.86-0.898
	c0.034-0.015,0.066-0.027,0.101-0.046c0.27-0.125,0.534-0.263,0.789-0.407c0.065-0.036,0.129-0.073,0.193-0.11
	c0.233-0.139,0.466-0.282,0.689-0.436c0.081-0.057,0.159-0.113,0.24-0.172c0.19-0.138,0.379-0.279,0.563-0.429
	c0.04-0.032,0.083-0.061,0.124-0.095l0.398-0.334l-0.012-0.01C22.482,18.675,24,15.511,24,11.999z M0.871,11.999
	c0-6.135,4.993-11.125,11.127-11.125c6.136,0,11.129,4.99,11.129,11.125c0,3.305-1.452,6.277-3.749,8.319
	c-0.129-0.091-0.259-0.171-0.389-0.235l-3.696-1.848c-0.332-0.167-0.537-0.499-0.537-0.869v-1.291
	c0.086-0.104,0.176-0.224,0.27-0.355c0.479-0.677,0.861-1.427,1.14-2.235c0.554-0.262,0.911-0.814,0.911-1.436v-1.546
	c0-0.38-0.14-0.746-0.387-1.034V7.432c0.022-0.226,0.101-1.504-0.822-2.558c-0.803-0.917-2.104-1.382-3.869-1.382
	c-1.762,0-3.064,0.465-3.869,1.381C7.205,5.928,7.284,7.206,7.306,7.432v2.037c-0.247,0.288-0.384,0.655-0.384,1.033v1.546
	c0,0.48,0.215,0.93,0.583,1.23c0.354,1.385,1.082,2.434,1.351,2.788v1.264c0,0.355-0.195,0.683-0.507,0.853l-3.452,1.883
	c-0.108,0.06-0.22,0.128-0.327,0.208C2.3,18.233,0.871,15.28,0.871,11.999z M18.528,21.002c-0.153,0.109-0.309,0.217-0.466,0.319
	c-0.073,0.047-0.146,0.094-0.22,0.14c-0.206,0.128-0.416,0.249-0.63,0.362c-0.048,0.025-0.095,0.048-0.143,0.072
	c-0.49,0.253-0.999,0.47-1.521,0.645c-0.02,0.007-0.037,0.013-0.057,0.021c-0.272,0.09-0.55,0.17-0.83,0.241h-0.002
	c-0.282,0.069-0.569,0.127-0.857,0.174c-0.01,0.002-0.018,0.004-0.023,0.006c-0.271,0.044-0.544,0.075-0.82,0.101
	c-0.046,0.004-0.095,0.007-0.144,0.011c-0.27,0.021-0.543,0.034-0.817,0.034c-0.277,0-0.552-0.014-0.827-0.034
	c-0.049-0.004-0.096-0.008-0.142-0.011c-0.277-0.024-0.552-0.06-0.825-0.103c-0.011-0.003-0.024-0.004-0.036-0.007
	c-0.578-0.096-1.145-0.237-1.698-0.421c-0.018-0.007-0.034-0.014-0.051-0.02c-0.275-0.093-0.545-0.197-0.812-0.312
	c-0.004,0-0.006-0.001-0.007-0.001c-0.252-0.11-0.5-0.23-0.743-0.357c-0.034-0.017-0.065-0.032-0.098-0.049
	c-0.223-0.12-0.439-0.248-0.656-0.384c-0.063-0.039-0.127-0.079-0.189-0.121c-0.199-0.129-0.393-0.263-0.584-0.406
	c-0.02-0.015-0.037-0.03-0.059-0.046c0.016-0.008,0.028-0.016,0.042-0.023l3.452-1.882c0.593-0.323,0.962-0.943,0.962-1.618v-1.574
	l-0.1-0.121c-0.01-0.01-0.952-1.158-1.308-2.711L8.28,12.753l-0.147-0.096c-0.211-0.137-0.337-0.364-0.337-0.608v-1.546
	c0-0.203,0.086-0.391,0.243-0.534l0.143-0.131v-2.43L8.178,7.352C8.176,7.34,8.049,6.292,8.789,5.449
	c0.629-0.719,1.71-1.084,3.212-1.084c1.495,0,2.575,0.363,3.206,1.076c0.738,0.834,0.619,1.902,0.617,1.912l-0.002,2.487
	l0.141,0.131c0.157,0.141,0.243,0.33,0.243,0.534v1.546c0,0.311-0.211,0.594-0.513,0.688l-0.219,0.066l-0.07,0.216
	c-0.257,0.801-0.622,1.537-1.089,2.195c-0.114,0.161-0.227,0.305-0.322,0.414l-0.108,0.123v1.615c0,0.702,0.393,1.336,1.021,1.649
	l3.693,1.848c0.022,0.013,0.048,0.023,0.069,0.036C18.621,20.935,18.573,20.966,18.528,21.002z"/>
</svg>
