<?xml version="1.0" encoding="utf-8"?>
<!-- Generator: Adobe Illustrator 16.0.0, SVG Export Plug-In . SVG Version: 6.00 Build 0)  -->
<!DOCTYPE svg PUBLIC "-//W3C//DTD SVG 1.1//EN" "http://www.w3.org/Graphics/SVG/1.1/DTD/svg11.dtd">
<svg version="1.1" id="Layer_1" xmlns="http://www.w3.org/2000/svg" xmlns:xlink="http://www.w3.org/1999/xlink" x="0px" y="0px"
	 width="24px" height="24px" viewBox="0 0 24 24" enable-background="new 0 0 24 24" xml:space="preserve">
<g>
	<path fill="#241F21" d="M16.249,6.427H7.751c-0.731,0-1.325,0.591-1.325,1.322v8.504c0,0.73,0.593,1.322,1.325,1.322h8.498
		c0.731,0,1.325-0.592,1.325-1.322V7.749C17.574,7.019,16.98,6.427,16.249,6.427 M14.438,8.169c0-0.193,0.156-0.349,0.348-0.349
		h1.047c0.19,0,0.347,0.156,0.347,0.349v1.045c0,0.191-0.156,0.347-0.347,0.347h-1.047c-0.191,0-0.348-0.156-0.348-0.347V8.169z
		 M12.012,9.875c1.185,0,2.144,0.958,2.144,2.139c0,1.181-0.958,2.139-2.144,2.139c-1.183,0-2.144-0.958-2.144-2.139
		C9.869,10.833,10.83,9.875,12.012,9.875 M16.529,16.181c0,0.192-0.156,0.349-0.349,0.349H7.82c-0.192,0-0.35-0.156-0.35-0.349
		v-5.226h1.394c-0.181,0.26-0.242,0.749-0.242,1.059c0,1.866,1.521,3.384,3.39,3.384c1.87,0,3.392-1.519,3.392-3.384
		c0-0.309-0.045-0.789-0.27-1.059h1.394L16.529,16.181L16.529,16.181z"/>
	<path fill="#241F21" d="M12,24C5.384,24,0,18.617,0,12C0,5.384,5.384,0,12,0c6.617,0,12,5.384,12,12C24,18.618,18.617,24,12,24
		 M12,0.914c-6.114,0-11.087,4.973-11.087,11.087C0.913,18.116,5.886,23.09,12,23.09s11.087-4.974,11.087-11.089
		C23.087,5.887,18.113,0.914,12,0.914"/>
</g>
</svg>
