<?xml version="1.0" encoding="utf-8"?>
<!-- Generator: Adobe Illustrator 16.0.0, SVG Export Plug-In . SVG Version: 6.00 Build 0)  -->
<!DOCTYPE svg PUBLIC "-//W3C//DTD SVG 1.1//EN" "http://www.w3.org/Graphics/SVG/1.1/DTD/svg11.dtd">
<svg version="1.1" id="Layer_1" xmlns="http://www.w3.org/2000/svg" xmlns:xlink="http://www.w3.org/1999/xlink" x="0px" y="0px"
	 width="24px" height="24px" viewBox="0 0 24 24" enable-background="new 0 0 24 24" xml:space="preserve">
<g>
	<g>
		<path fill="none" d="M14.778,9.031c1.73,1.727,1.73,4.526,0,6.254c-1.728,1.727-4.525,1.727-6.254,0
			c-1.727-1.728-1.727-4.527,0-6.254C10.253,7.304,13.051,7.304,14.778,9.031"/>
		<circle fill="none" stroke="#241F21" stroke-width="0.9626" stroke-miterlimit="10" cx="11.651" cy="12.158" r="4.422"/>
		<path fill="#241F21" d="M15.004,15.421c-0.015,0-0.047,0.004-0.071,0.031l-0.141,0.146c-0.024,0.027-0.03,0.06-0.03,0.075
			c0,0.017,0.006,0.048,0.03,0.073l4.416,4.571c0.051,0.054,0.092,0.054,0.143,0.001l0.142-0.147c0.026-0.026,0.03-0.059,0.03-0.074
			s-0.004-0.049-0.03-0.076l-4.415-4.569C15.052,15.425,15.021,15.421,15.004,15.421 M19.279,20.988
			c-0.191,0-0.372-0.077-0.508-0.217L14.357,16.2c-0.135-0.14-0.21-0.326-0.21-0.525s0.075-0.386,0.21-0.524l0.14-0.147
			c0.269-0.281,0.744-0.281,1.019,0l4.414,4.571c0.134,0.139,0.211,0.327,0.209,0.526c0,0.198-0.075,0.385-0.211,0.523l-0.145,0.147
			C19.649,20.911,19.472,20.988,19.279,20.988"/>
	</g>
	<path fill="#241F21" d="M12,24C5.385,24,0,18.617,0,12C0,5.384,5.385,0,12,0c6.616,0,12,5.384,12,12C24,18.618,18.616,24,12,24
		 M12,0.914c-6.113,0-11.086,4.973-11.086,11.087C0.914,18.116,5.887,23.09,12,23.09c6.116,0,11.089-4.974,11.089-11.089
		C23.089,5.887,18.116,0.914,12,0.914"/>
</g>
</svg>
