<?xml version="1.0" encoding="utf-8"?>
<!-- Generator: Adobe Illustrator 16.0.0, SVG Export Plug-In . SVG Version: 6.00 Build 0)  -->
<!DOCTYPE svg PUBLIC "-//W3C//DTD SVG 1.1//EN" "http://www.w3.org/Graphics/SVG/1.1/DTD/svg11.dtd">
<svg version="1.1" id="Layer_1" xmlns="http://www.w3.org/2000/svg" xmlns:xlink="http://www.w3.org/1999/xlink" x="0px" y="0px"
	 width="24px" height="24px" viewBox="0 0 24 24" enable-background="new 0 0 24 24" xml:space="preserve">
<g>
	<g>
		<path fill="#241F21" d="M5.135,21.525h13.731l-0.271-0.54c-2.313-5.054,0-13.154-0.041-13.269l0.156-0.5h-3.585V5.712
			c0-1.233-1.006-2.274-2.276-2.274h-1.774C9.84,3.438,8.8,4.442,8.8,5.712v1.505H5.172l0.156,0.5
			c0.036,0.115,2.352,8.218,0.036,13.269L5.135,21.525z M9.57,5.713c0-0.848,0.692-1.541,1.545-1.541h1.774
			c0.85,0,1.543,0.693,1.543,1.541v1.505H9.569L9.57,5.713L9.57,5.713z M6.213,7.989h11.532c-0.462,1.811-1.852,8.176-0.077,12.767
			H6.291C8.103,16.165,6.677,9.799,6.213,7.989L6.213,7.989z"/>
	</g>
	<path fill="#241F21" d="M12,24C5.384,24,0,18.617,0,12C0,5.384,5.384,0,12,0c6.618,0,12,5.384,12,12C24,18.618,18.618,24,12,24
		 M12,0.914c-6.113,0-11.088,4.973-11.088,11.087C0.912,18.116,5.887,23.09,12,23.09c6.114,0,11.089-4.974,11.089-11.089
		C23.089,5.887,18.114,0.914,12,0.914"/>
</g>
</svg>
