<?xml version="1.0" encoding="utf-8"?>
<!-- Generator: Adobe Illustrator 16.0.0, SVG Export Plug-In . SVG Version: 6.00 Build 0)  -->
<!DOCTYPE svg PUBLIC "-//W3C//DTD SVG 1.1//EN" "http://www.w3.org/Graphics/SVG/1.1/DTD/svg11.dtd">
<svg version="1.1" id="Layer_1" xmlns="http://www.w3.org/2000/svg" xmlns:xlink="http://www.w3.org/1999/xlink" x="0px" y="0px"
	 width="48px" height="48px" viewBox="0 0 48 48" enable-background="new 0 0 48 48" xml:space="preserve">
<path fill="#FFFFFF" stroke="#241F21" stroke-width="1.896" stroke-miterlimit="10" d="M27.083,5.44
	c5.853,5.853,5.853,15.342,0,21.194c-5.853,5.852-15.343,5.852-21.194,0c-5.855-5.853-5.855-15.342,0-21.194
	C11.741-0.413,21.231-0.413,27.083,5.44z"/>
<path fill="#241F21" d="M28.246,27.305c-0.063,0-0.181,0.016-0.279,0.116l-0.546,0.547c-0.101,0.1-0.115,0.217-0.115,0.278
	c0,0.061,0.015,0.179,0.113,0.277l16.995,16.995c0.194,0.196,0.357,0.196,0.552,0.002l0.552-0.553
	c0.101-0.099,0.115-0.213,0.115-0.275c0-0.062-0.015-0.181-0.115-0.281L28.524,27.422C28.425,27.321,28.307,27.305,28.246,27.305
	 M44.691,48c-0.738,0-1.432-0.287-1.952-0.807L25.745,30.2c-0.52-0.519-0.808-1.213-0.808-1.953s0.288-1.435,0.81-1.953l0.544-0.547
	c1.042-1.044,2.868-1.044,3.909,0l16.993,16.991c0.521,0.523,0.809,1.222,0.808,1.961c-0.002,0.738-0.29,1.43-0.811,1.948
	l-0.548,0.547C46.125,47.713,45.431,48,44.691,48"/>
</svg>
