<?xml version="1.0" encoding="utf-8"?>
<!-- Generator: Adobe Illustrator 16.0.0, SVG Export Plug-In . SVG Version: 6.00 Build 0)  -->
<!DOCTYPE svg PUBLIC "-//W3C//DTD SVG 1.1//EN" "http://www.w3.org/Graphics/SVG/1.1/DTD/svg11.dtd">
<svg version="1.1" id="Layer_1" xmlns="http://www.w3.org/2000/svg" xmlns:xlink="http://www.w3.org/1999/xlink" x="0px" y="0px"
	 width="28px" height="28px" viewBox="0 0 28 28" enable-background="new 0 0 28 28" xml:space="preserve">
<g>
	<g>
		<defs>
			<rect id="SVGID_1_" x="0" y="3" width="28" height="22"/>
		</defs>
		<clipPath id="SVGID_2_">
			<use xlink:href="#SVGID_1_"  overflow="visible"/>
		</clipPath>
		<path clip-path="url(#SVGID_2_)" fill="#6E6E70" d="M25.748,23.496H2.252c-0.414,0-0.751-0.338-0.751-0.752V5.95l10.87,9.411
			c0.456,0.396,1.042,0.593,1.627,0.593c0.586,0,1.171-0.198,1.629-0.593L26.497,5.95v16.794
			C26.498,23.158,26.162,23.496,25.748,23.496 M25.748,4.505c0.035,0,0.064,0.016,0.101,0.021l-11.201,9.698
			c-0.347,0.298-0.949,0.298-1.291,0L2.154,4.525c0.034-0.005,0.064-0.021,0.101-0.021H25.748z M25.748,3.001H2.252
			C1.011,3.001,0,4.013,0,5.257v17.487c0,1.243,1.011,2.257,2.252,2.257h23.495c1.242,0,2.252-1.014,2.252-2.257V5.257
			C28,4.013,26.99,3.001,25.748,3.001"/>
	</g>
</g>
</svg>
