<?xml version="1.0" encoding="utf-8"?>
<!-- Generator: Adobe Illustrator 16.0.0, SVG Export Plug-In . SVG Version: 6.00 Build 0)  -->
<!DOCTYPE svg PUBLIC "-//W3C//DTD SVG 1.1//EN" "http://www.w3.org/Graphics/SVG/1.1/DTD/svg11.dtd">
<svg version="1.1" id="Layer_1" xmlns="http://www.w3.org/2000/svg" xmlns:xlink="http://www.w3.org/1999/xlink" x="0px" y="0px"
	 width="24px" height="24px" viewBox="0 0 24 24" enable-background="new 0 0 24 24" xml:space="preserve">
<g>
	<path fill="#241F21" d="M17.24,7.368c-0.451,0.272-0.951,0.474-1.484,0.58c-0.424-0.466-1.033-0.757-1.705-0.757
		c-1.29,0-2.337,1.072-2.337,2.396c0,0.188,0.021,0.37,0.061,0.546c-1.94-0.1-3.662-1.054-4.815-2.505
		C6.758,7.982,6.643,8.396,6.643,8.835c0,0.83,0.412,1.562,1.039,1.994c-0.382-0.012-0.743-0.121-1.059-0.3v0.028
		c0,1.161,0.806,2.131,1.875,2.351c-0.196,0.057-0.402,0.084-0.616,0.084c-0.15,0-0.298-0.014-0.439-0.042
		c0.297,0.95,1.16,1.644,2.183,1.662c-0.8,0.644-1.808,1.025-2.901,1.025c-0.188,0-0.375-0.011-0.558-0.032
		c1.033,0.679,2.263,1.076,3.581,1.076c4.298,0,6.647-3.651,6.647-6.816c0-0.104-0.002-0.209-0.006-0.311
		c0.457-0.339,0.854-0.761,1.166-1.241c-0.418,0.191-0.869,0.32-1.342,0.378C16.695,8.396,17.066,7.928,17.24,7.368"/>
	<path fill="#241F21" d="M12,24C5.384,24,0,18.617,0,12.001C0,5.384,5.384,0,12,0c6.617,0,12,5.384,12,12.001S18.617,24,12,24
		 M12,0.914c-6.113,0-11.088,4.973-11.088,11.088c0,6.113,4.975,11.089,11.088,11.089c6.115,0,11.088-4.975,11.088-11.089
		S18.113,0.914,12,0.914"/>
</g>
</svg>
