<?xml version="1.0" encoding="utf-8"?>
<!-- Generator: Adobe Illustrator 16.0.0, SVG Export Plug-In . SVG Version: 6.00 Build 0)  -->
<!DOCTYPE svg PUBLIC "-//W3C//DTD SVG 1.1//EN" "http://www.w3.org/Graphics/SVG/1.1/DTD/svg11.dtd">
<svg version="1.1" id="Layer_1" xmlns="http://www.w3.org/2000/svg" xmlns:xlink="http://www.w3.org/1999/xlink" x="0px" y="0px"
	 width="28px" height="28px" viewBox="0 0 28 28" enable-background="new 0 0 28 28" xml:space="preserve">
<g>
	<path fill="#6E6E70" d="M24.883,4.136c0.026,0.192,0.042,0.39,0.042,0.591v0.062c1.017,0.472,1.723,1.5,1.723,2.693v11.396
		c0,1.488-1.094,2.721-2.522,2.936l0.563,3.832l-3.54-3.799H7.83c-0.396,0-0.773-0.078-1.118-0.219l-0.424,0.455
		c0.467,0.225,0.989,0.352,1.542,0.352h13.063l3.365,3.613l1.285,1.381l-0.272-1.867l-0.485-3.303
		c0.607-0.199,1.155-0.561,1.581-1.051c0.56-0.646,0.868-1.473,0.868-2.33V7.482C27.235,5.943,26.253,4.629,24.883,4.136"/>
	<path fill="#6E6E70" d="M7.967,20.279h12.804c2.29,0,4.155-1.863,4.155-4.154V4.789V4.726c0-0.201-0.016-0.397-0.043-0.59
		c-0.288-2.013-2.023-3.564-4.112-3.564H4.921c-2.291,0-4.155,1.863-4.155,4.154v11.398c0,1,0.36,1.967,1.015,2.721
		c0.384,0.441,0.852,0.795,1.372,1.039l-0.415,2.834l-0.553,3.768l2.595-2.785l1.508-1.617l0.423-0.455L7.967,20.279z M3.913,22.89
		l0.562-3.832c-1.428-0.215-2.521-1.447-2.521-2.934V4.726c0-1.639,1.327-2.968,2.968-2.968H20.77c1.639,0,2.968,1.329,2.968,2.968
		v11.398c0,1.639-1.329,2.967-2.968,2.967H7.45L3.913,22.89z"/>
	<path fill="#6E6E70" d="M9.29,8.252c0.684,0,1.235-0.436,1.235-1.118S9.973,5.899,9.29,5.899H7.17L6.707,8.252H9.29z"/>
	<path fill="#6E6E70" d="M14.208,8.252c0.683,0,1.234-0.436,1.234-1.118s-0.552-1.235-1.234-1.235h-2.101l-0.464,2.354H14.208z"/>
	<path fill="#6E6E70" d="M8.671,11.781c0.682,0,1.235-0.435,1.235-1.117S9.353,9.428,8.671,9.428H6.552l-0.464,2.353H8.671z"/>
	<path fill="#6E6E70" d="M13.588,11.781c0.684,0,1.236-0.435,1.236-1.117s-0.553-1.235-1.236-1.235h-2.1l-0.465,2.353H13.588z"/>
	<path fill="#6E6E70" d="M12.977,15.31c0.683,0,1.235-0.435,1.235-1.118c0-0.682-0.553-1.234-1.235-1.234h-2.1l-0.465,2.353H12.977z
		"/>
	<path fill="#6E6E70" d="M18.53,10.605c0.682,0,1.235-0.436,1.235-1.118s-0.554-1.235-1.235-1.235h-2.1l-0.464,2.354H18.53z"/>
	<path fill="#6E6E70" d="M17.912,14.134c0.683,0,1.234-0.436,1.234-1.118c0-0.682-0.552-1.235-1.234-1.235h-2.101l-0.464,2.354
		H17.912z"/>
</g>
</svg>
