<?xml version="1.0" encoding="utf-8"?>
<!-- Generator: Adobe Illustrator 16.0.0, SVG Export Plug-In . SVG Version: 6.00 Build 0)  -->
<!DOCTYPE svg PUBLIC "-//W3C//DTD SVG 1.1//EN" "http://www.w3.org/Graphics/SVG/1.1/DTD/svg11.dtd">
<svg version="1.1" id="Layer_1" xmlns="http://www.w3.org/2000/svg" xmlns:xlink="http://www.w3.org/1999/xlink" x="0px" y="0px"
	 width="24px" height="24px" viewBox="0 0 24 24" enable-background="new 0 0 24 24" xml:space="preserve">
<g>
	<path fill="#241F21" d="M12,24C5.382,24,0,18.617,0,12C0,5.384,5.382,0,12,0c6.617,0,12,5.384,12,12C24,18.617,18.617,24,12,24
		 M12,0.912C5.886,0.912,0.911,5.887,0.911,12c0,6.113,4.976,11.087,11.089,11.087c6.114,0,11.087-4.974,11.087-11.087
		C23.087,5.887,18.115,0.912,12,0.912"/>
	<path fill="#241F21" d="M17.493,16.75c0,0.341-0.275,0.617-0.617,0.617h-2.844v-4.322h1.451l0.218-1.685h-1.669v-1.075
		c0-0.488,0.136-0.82,0.836-0.82h0.892V7.957c-0.154-0.02-0.686-0.066-1.301-0.066c-1.286,0-2.167,0.784-2.167,2.226v1.243h-1.454
		v1.685h1.454v4.322H6.946c-0.34,0-0.616-0.276-0.616-0.617V6.821c0-0.341,0.276-0.617,0.616-0.617h9.93
		c0.342,0,0.617,0.276,0.617,0.617V16.75z"/>
</g>
</svg>
